<svg xmlns="http://www.w3.org/2000/svg" version="1.1" xmlns:xlink="http://www.w3.org/1999/xlink" width="512" height="512" x="0" y="0" viewBox="0 0 512.001 512.001" style="enable-background:new 0 0 512 512" xml:space="preserve" class=""><g><path d="M468.683 287.265h-69.07a7.507 7.507 0 0 0-7.508 7.508 7.507 7.507 0 0 0 7.508 7.508h69.07a7.507 7.507 0 0 0 7.508-7.508 7.507 7.507 0 0 0-7.508-7.508zM105.012 268.377 85.781 256l19.231-12.376a7.507 7.507 0 0 0 2.251-10.376 7.505 7.505 0 0 0-10.376-2.25l-17.471 11.243v-20.776a7.507 7.507 0 0 0-7.508-7.508 7.507 7.507 0 0 0-7.508 7.508v20.775l-17.47-11.243a7.505 7.505 0 0 0-10.376 2.25 7.506 7.506 0 0 0 2.25 10.376L58.034 256l-19.231 12.376a7.506 7.506 0 0 0-2.25 10.376 7.501 7.501 0 0 0 10.376 2.25l17.47-11.243v20.775a7.507 7.507 0 0 0 7.508 7.508 7.507 7.507 0 0 0 7.508-7.508V269.76l17.471 11.243a7.502 7.502 0 0 0 10.376-2.25 7.506 7.506 0 0 0-2.25-10.376zM194.441 268.377 175.21 256l19.231-12.376a7.506 7.506 0 0 0 2.25-10.376 7.505 7.505 0 0 0-10.376-2.25l-17.47 11.243v-20.775a7.507 7.507 0 0 0-7.508-7.508 7.507 7.507 0 0 0-7.508 7.508v20.776l-17.471-11.243a7.505 7.505 0 0 0-10.376 2.25 7.506 7.506 0 0 0 2.25 10.376L147.463 256l-19.231 12.376a7.506 7.506 0 0 0-2.25 10.376 7.501 7.501 0 0 0 10.376 2.25l17.471-11.243v20.776a7.507 7.507 0 0 0 7.508 7.508 7.507 7.507 0 0 0 7.508-7.508V269.76l17.47 11.243a7.502 7.502 0 0 0 10.376-2.25 7.506 7.506 0 0 0-2.25-10.376zM283.871 268.377 264.64 256l19.231-12.376a7.507 7.507 0 0 0 2.251-10.376 7.505 7.505 0 0 0-10.376-2.25l-17.471 11.243v-20.775a7.507 7.507 0 0 0-7.508-7.508 7.507 7.507 0 0 0-7.508 7.508v20.775l-17.471-11.243a7.505 7.505 0 0 0-10.376 2.25 7.506 7.506 0 0 0 2.25 10.376L236.892 256l-19.231 12.376a7.506 7.506 0 0 0-2.25 10.376 7.501 7.501 0 0 0 10.376 2.25l17.471-11.243v20.775a7.507 7.507 0 0 0 7.508 7.508 7.507 7.507 0 0 0 7.508-7.508V269.76l17.471 11.243a7.501 7.501 0 0 0 10.376-2.25 7.506 7.506 0 0 0-2.25-10.376zM373.3 268.377 354.069 256l19.231-12.376a7.506 7.506 0 0 0 2.25-10.376 7.505 7.505 0 0 0-10.376-2.25l-17.471 11.243v-20.776a7.507 7.507 0 0 0-7.508-7.508 7.507 7.507 0 0 0-7.508 7.508v20.775l-17.47-11.243a7.505 7.505 0 0 0-10.376 2.25 7.506 7.506 0 0 0 2.25 10.376L326.322 256l-19.231 12.376a7.506 7.506 0 0 0-2.25 10.376 7.501 7.501 0 0 0 10.376 2.25l17.47-11.243v20.776a7.507 7.507 0 0 0 7.508 7.508 7.507 7.507 0 0 0 7.508-7.508V269.76l17.471 11.243a7.502 7.502 0 0 0 10.376-2.25 7.506 7.506 0 0 0-2.25-10.376z" fill="#000000" opacity="1" data-original="#000000" class=""></path><path d="M271.792 330.359H15.016V181.642h93.1a7.507 7.507 0 0 0 7.508-7.508 7.507 7.507 0 0 0-7.508-7.508H12.513C5.613 166.626 0 172.24 0 179.14v153.722c0 6.9 5.613 12.513 12.513 12.513h259.278a7.507 7.507 0 0 0 7.508-7.508 7.507 7.507 0 0 0-7.507-7.508zM499.487 166.626H162.174a7.507 7.507 0 0 0-7.508 7.508 7.507 7.507 0 0 0 7.508 7.508h334.811v148.716H323.848a7.507 7.507 0 0 0-7.508 7.508 7.507 7.507 0 0 0 7.508 7.508h175.64c6.9 0 12.513-5.613 12.513-12.513V179.14c0-6.9-5.614-12.514-12.514-12.514z" fill="#000000" opacity="1" data-original="#000000" class=""></path></g></svg>